# xmcd CD database file
#
# Track frame offsets:
#	150
#	22311
#	41041
#	76991
#	107118
#	129246
#	151785
#	170083
#	185414
#	217579
#
# Disc length: 3072 seconds
#
# Revision: 0
# Processed by: cddbd v1.5.2PL0 Copyright (c) Steve Scherf et al.
# Submitted via: CDex 1.51
#
DISCID=7c0bfe0a
DTITLE=Sheila Cooper - Tales Of Laugh And Longing
DYEAR=2006
DGENRE=Jazz
TTITLE0=Winter Moon
TTITLE1=He's Funny That Way
TTITLE2=I'm A Fool To Want You
TTITLE3=I Didn't Know About You
TTITLE4=How Deep Is The Ocean
TTITLE5=Lonely Woman
TTITLE6=I Gravitate To You
TTITLE7=Body And Soul
TTITLE8=So In Love
TTITLE9=A Kiss To Build A Dream On
EXTD=YEAR: 2006
EXTT0=
EXTT1=
EXTT2=
EXTT3=
EXTT4=
EXTT5=
EXTT6=
EXTT7=
EXTT8=
EXTT9=
PLAYORDER=
